# xmcd CD database file
#
# Track frame offsets:
#	150
#	978
#	17260
#	32583
#	49199
#	72096
#	99174
#	117513
#	140817
#	159983
#	183118
#	202876
#	212669
#	231210
#	250120
#	275297
#	300719
#	324134
#	347993
#	369157
#
# Disc length: 5153 seconds
#
# Revision: 0
# Processed by: cddbd v1.5.1PL2 Copyright (c) Steve Scherf et al.
# Submitted via: Feurio! 1.68 - http://www.feurio.com
#
DISCID=04141f14
DTITLE=Tonke Dragt - Der Wilde Wald - CD 1
DYEAR=2005
DGENRE=Hörbuch
TTITLE0=Ritter Idian
TTITLE1=Ritter Idian
TTITLE2=Ritter Idian
TTITLE3=Ritter Idian
TTITLE4=Zwei Ritter Aus Dem Süden
TTITLE5=Zwei Ritter Aus Dem Süden
TTITLE6=Zwei Ritter Aus Dem Süden
TTITLE7=Zwei Ritter Aus Dem Süden
TTITLE8=Zwei Ritter Aus Dem Süden
TTITLE9=Zwei Ritter Aus Dem Süden
TTITLE10=Die Tochter Von Islan
TTITLE11=Die Tochter Von Islan
TTITLE12=Die Tochter Von Islan
TTITLE13=Die Tochter Von Islan
TTITLE14=Gelbe Blumen
TTITLE15=Gelbe Blumen
TTITLE16=Gelbe Blumen
TTITLE17=Gelbe Blumen
TTITLE18=Gelbe Blumen
TTITLE19=Gelbe Blumen
EXTD=Gelesen Von Konstantin Graudus
EXTT0=
EXTT1=
EXTT2=
EXTT3=
EXTT4=
EXTT5=
EXTT6=
EXTT7=
EXTT8=
EXTT9=
EXTT10=
EXTT11=
EXTT12=
EXTT13=
EXTT14=
EXTT15=
EXTT16=
EXTT17=
EXTT18=
EXTT19=
PLAYORDER=
